# xmcd
#
# Track frame offsets: 
#        150
#        19408
#        32159
#        55156
#        66842
#        79744
#        95892
#        107783
#        120872
#        133375
#        144826
#        171154
#        184623
#        208255
#
# Disc length: 2928 seconds
#
# Revision: 4
# Processed by: cddbd v1.5.2PL0 Copyright (c) Steve Scherf et al.
# Submitted via: ExactAudioCopy v0.99pb5
#
DISCID=ca0b6e0e
DTITLE=Various Artist - Jazz and Blues 01 - Essential blues
DYEAR=0
DGENRE=Blues
TTITLE0=Louis Armstrong - WEST AND BLUES
TTITLE1=Elmore James - MAKE A LITTLE LOVE
TTITLE2=Howling' Wolf  - LITTLE RED ROOSTER
TTITLE3=John Lee Hooker - BOOGIE CHILUN
TTITLE4=Muddy Waters - 40 DAYS AND 40 NIGHTS
TTITLE5=B.B.King - IT`S MY OWN FAULT BABY
TTITLE6=Eric Clapton - GOT TO HURRY
TTITLE7=Howlin' Wolf - AIN`T SUPERSTITIOUS
TTITLE8=Elmore James - DUST IN MY BEDROOM
TTITLE9=Dinah Washington - WHAT A DIFFERENT A DAY MAKES
TTITLE10=Eric Clapton - I WISH YOU WOULD
TTITLE11=Muddy Waters - ROLLIN`AND TUMBLIN`
TTITLE12=B.B.King - YOU`VE DONE LOST YOUR GOOD THING NOW
TTITLE13=John Lee Hooker - BOOM BOOM
EXTD=
EXTT0=
EXTT1=
EXTT2=
EXTT3=
EXTT4=
EXTT5=
EXTT6=
EXTT7=
EXTT8=
EXTT9=
EXTT10=
EXTT11=
EXTT12=
EXTT13=
PLAYORDER=
